<svg width="24" height="24" viewBox="0 0 24 24" fill="none" xmlns="http://www.w3.org/2000/svg">
<path d="M18.4678 21.9992L18.4668 21.9992C18.4144 21.9995 18.3633 21.9832 18.3207 21.9528C18.3205 21.9527 18.3203 21.9525 18.32 21.9524L12.2935 17.5832L12 17.3704L11.7065 17.5832L5.67791 21.9538L5.67782 21.9539C5.63489 21.985 5.58317 22.0017 5.53014 22.0015C5.47709 22.0013 5.4255 21.9842 5.38279 21.9528C5.34009 21.9213 5.30849 21.8771 5.29257 21.8265C5.27665 21.776 5.27723 21.7216 5.29423 21.6714L5.29433 21.6711L7.64558 14.7068L7.76658 14.3485L7.45463 14.1345L1.36089 9.95564L1.36067 9.95549C1.31667 9.92536 1.28347 9.88194 1.2659 9.83158C1.24834 9.78123 1.24734 9.72657 1.26304 9.67561C1.27875 9.62464 1.31035 9.58004 1.35321 9.54831L1.05573 9.14643L1.35321 9.54831C1.39594 9.51668 1.44763 9.4995 1.50077 9.49925H9.01779H9.38105L9.49332 9.15377L11.7621 2.17174L11.7622 2.17143C11.7785 2.12118 11.8102 2.07739 11.853 2.04633C11.8957 2.01527 11.9472 1.99854 12 1.99854C12.0528 1.99854 12.1043 2.01527 12.147 2.04633C12.1897 2.07739 12.2215 2.12118 12.2378 2.17143L12.2379 2.17169L14.5066 9.15606L14.6189 9.50159H14.9822H22.5L22.5002 9.50159C22.5536 9.50157 22.6056 9.51864 22.6486 9.55031C22.6916 9.58197 22.7233 9.62657 22.7391 9.67758C22.7549 9.72859 22.754 9.78331 22.7365 9.83374C22.7189 9.88418 22.6857 9.92766 22.6416 9.95784L22.6416 9.95786L16.5455 14.1344L16.2334 14.3483L16.3544 14.7068L18.7042 21.6691L18.7042 21.6692C18.7169 21.7068 18.7205 21.7469 18.7146 21.7861C18.7088 21.8253 18.6937 21.8626 18.6706 21.8948C18.6475 21.9271 18.6171 21.9534 18.5818 21.9715C18.5466 21.9897 18.5075 21.9992 18.4678 21.9992Z" fill="#55FFA3" stroke="#0E0F11"/>
</svg>
