<svg width="50" height="70" viewBox="0 0 50 70" fill="none" xmlns="http://www.w3.org/2000/svg">
<path d="M25 35.6956H25.0008C27.7711 35.6926 30.4272 34.5907 32.3861 32.6317C34.3451 30.6728 35.447 28.0167 35.45 25.2464V25.2456C35.45 23.1788 34.8371 21.1584 33.6888 19.4399C32.5406 17.7214 30.9085 16.382 28.999 15.5911C27.0895 14.8001 24.9884 14.5932 22.9613 14.9964C20.9342 15.3996 19.0722 16.3949 17.6107 17.8563C16.1493 19.3178 15.154 21.1798 14.7508 23.2069C14.3476 25.234 14.5545 27.3352 15.3455 29.2446C16.1364 31.1541 17.4758 32.7862 19.1943 33.9345C20.9128 35.0827 22.9332 35.6956 25 35.6956ZM25 68.0671C24.855 67.902 24.6815 67.7033 24.4823 67.4727C23.82 66.7063 22.8726 65.5884 21.7351 64.1856C19.4596 61.3791 16.4266 57.4361 13.3949 52.8885C10.362 48.3392 7.33869 43.1971 5.07554 37.9919C2.80929 32.7795 1.325 27.5481 1.325 22.8081C1.325 11.1524 11.8589 1.57061 25 1.57061C38.1411 1.57061 48.675 11.1524 48.675 22.8081C48.675 27.5481 47.1907 32.7795 44.9244 37.9919C42.6613 43.1971 39.638 48.3392 36.605 52.8885C33.5734 57.4361 30.5404 61.3791 28.2649 64.1856C27.1274 65.5884 26.18 66.7063 25.5177 67.4727C25.3184 67.7033 25.145 67.902 25 68.0671Z" fill="#55FFA3" stroke="#3E4247" stroke-width="1.4"/>
</svg>
