<svg width="54" height="54" viewBox="0 0 54 54" fill="none" xmlns="http://www.w3.org/2000/svg">
<path d="M27 27.6971L27.0008 27.6971C28.9758 27.6949 30.8692 26.9094 32.2658 25.5128C33.6623 24.1163 34.4478 22.2228 34.45 20.2478V20.2471C34.45 18.7736 34.0131 17.3332 33.1944 16.1081C32.3758 14.8829 31.2123 13.928 29.851 13.3642C28.4897 12.8003 26.9917 12.6528 25.5466 12.9402C24.1014 13.2277 22.7739 13.9372 21.732 14.9791C20.6901 16.021 19.9806 17.3485 19.6931 18.7936C19.4057 20.2388 19.5532 21.7367 20.1171 23.0981C20.681 24.4594 21.6359 25.6229 22.861 26.4415C24.0861 27.2601 25.5265 27.6971 27 27.6971ZM27 49.5656C26.9396 49.4963 26.8744 49.4212 26.8045 49.3404C26.3473 48.8113 25.6929 48.0391 24.907 47.0699C23.3346 45.1306 21.2391 42.4063 19.1449 39.265C17.0495 36.1219 14.9637 32.5736 13.4037 28.9855C11.8405 25.3903 10.825 21.7996 10.825 18.5596C10.825 10.63 17.9994 4.07207 27 4.07207C36.0006 4.07207 43.175 10.63 43.175 18.5596C43.175 21.7996 42.1594 25.3903 40.5963 28.9855C39.0363 32.5736 36.9505 36.1219 34.8551 39.265C32.7609 42.4063 30.6654 45.1306 29.093 47.0699C28.3071 48.0391 27.6527 48.8113 27.1955 49.3404C27.1256 49.4212 27.0604 49.4963 27 49.5656Z" fill="#3E4247" stroke="#3E4247" stroke-width="1.4"/>
</svg>
